<svg width="18" height="16" viewBox="0 0 18 16" fill="none" xmlns="http://www.w3.org/2000/svg">
<path fill-rule="evenodd" clip-rule="evenodd" d="M0 7.74062C0 3.46591 4.02926 0 9.00017 0C13.9711 0 18 3.46591 18 7.74062C18 12.0153 13.9707 15.4812 9.00017 15.4812C4.0296 15.4812 0 12.0158 0 7.74062Z" fill="#003874" style="fill:#003874;fill:color(display-p3 0.0000 0.2196 0.4549);fill-opacity:1;"/>
<path fill-rule="evenodd" clip-rule="evenodd" d="M7.90728 2.48593L9.99829 1.79504L10.0086 13.0986L7.8999 13.8051L7.90728 2.48593Z" fill="#ED1C24" style="fill:#ED1C24;fill:color(display-p3 0.9294 0.1098 0.1412);fill-opacity:1;"/>
<path fill-rule="evenodd" clip-rule="evenodd" d="M15.7685 8.51991C15.5723 10.1368 14.6654 11.7704 12.6849 11.7735C11.5287 11.7756 10.6255 10.9839 9.99998 10.0153V8.89342C10.7827 9.28203 11.5143 9.69913 12.4018 9.71183C13.4952 9.72797 14.4839 9.3076 14.8928 8.51974L15.7685 8.51991ZM9.14809 9.53521C8.23956 10.6303 7.36159 11.7489 5.71651 11.7489C3.39292 11.7489 2.29077 9.50243 2.29077 7.62426C2.29077 5.81955 3.1521 3.68323 5.41579 3.68323C6.39761 3.68323 7.3427 4.28365 7.90605 4.91875L7.90433 6.4507C7.43368 6.13384 6.37942 5.82299 5.69111 5.81183C4.25562 5.7878 2.99006 6.41002 3.01203 7.82697C3.02697 8.80245 3.99352 9.46552 4.95509 9.46552C6.42782 9.46552 7.32005 8.12015 8.06568 7.09902C8.36463 6.70922 8.66016 6.31682 8.95224 5.92186C9.78044 4.76461 10.7388 3.70812 12.3838 3.70812C14.3217 3.70812 15.4096 5.27011 15.7172 6.8781H14.8418C14.4899 6.35664 13.8131 6.03755 13.1465 6.03755C11.6239 6.03755 10.7142 7.43819 9.95278 8.46945L9.14603 9.53504" fill="white" style="fill:white;fill-opacity:1;"/>
</svg>
